<?xml version="1.0" standalone="no"?>
<!DOCTYPE svg PUBLIC "-//W3C//DTD SVG 20010904//EN"
 "http://www.w3.org/TR/2001/REC-SVG-20010904/DTD/svg10.dtd">
<svg version="1.0" xmlns="http://www.w3.org/2000/svg"
 width="200.000000pt" height="200.000000pt" viewBox="0 0 200.000000 200.000000"
 preserveAspectRatio="xMidYMid meet">

<g transform="translate(0.000000,200.000000) scale(0.100000,-0.100000)"
fill="#000000" stroke="none">
<path d="M780 824 c-11 -29 1 -54 26 -54 17 0 37 47 30 67 -9 23 -46 15 -56
-13z"/>
<path d="M1080 741 c-13 -26 -3 -51 21 -51 21 0 40 36 32 58 -8 19 -41 14 -53
-7z"/>
<path d="M895 693 c-19 -46 -16 -67 11 -71 17 -2 25 6 38 40 17 40 17 43 0 55
-26 19 -32 17 -49 -24z"/>
<path d="M724 675 c-21 -52 -19 -75 9 -75 19 0 28 9 41 43 15 39 15 43 -1 55
-26 18 -33 15 -49 -23z"/>
<path d="M1010 555 c-13 -40 -7 -55 21 -55 20 0 39 34 39 71 0 13 -7 19 -24
19 -19 0 -27 -8 -36 -35z"/>
<path d="M845 560 c-4 -12 -1 -27 5 -35 18 -21 52 -1 48 28 -4 30 -44 35 -53
7z"/>
</g>
</svg>
